<svg xmlns="http://www.w3.org/2000/svg" xmlns:xlink="http://www.w3.org/1999/xlink" width="52" height="53" version="1.1" viewBox="0 0 52 53"><title>Group 6</title><desc>Created with Sketch.</desc><defs><filter id="filter-1" width="106.1%" height="128.9%" x="-3.1%" y="-14.4%" filterUnits="objectBoundingBox"><feOffset dx="0" dy="9" in="SourceAlpha" result="shadowOffsetOuter1"/><feGaussianBlur in="shadowOffsetOuter1" result="shadowBlurOuter1" stdDeviation="4"/><feColorMatrix in="shadowBlurOuter1" result="shadowMatrixOuter1" type="matrix" values="0 0 0 0 0.597496811 0 0 0 0 0.597496811 0 0 0 0 0.597496811 0 0 0 0.0387228261 0"/><feMerge><feMergeNode in="shadowMatrixOuter1"/><feMergeNode in="SourceGraphic"/></feMerge></filter></defs><g id="desktop_new" fill="none" fill-rule="evenodd" stroke="none" stroke-width="1"><g id="Address-Txs-history" fill="#303030" fill-rule="nonzero" transform="translate(-1307.000000, -202.000000)"><g id="Group-3" filter="url(#filter-1)" transform="translate(301.000000, 165.000000)"><g id="Group-6" transform="translate(1014.000000, 37.000000)"><g id="qr-code"><path id="Shape" d="M0,35.0769231 L15.6923077,35.0769231 L15.6923077,20.3076923 L0,20.3076923 L0,35.0769231 Z M3.13822107,23.2617648 L12.5537431,23.2617648 L12.5537431,32.1003806 L3.13822107,32.1003806 L3.13822107,23.2617648 Z"/><polygon id="Rectangle-path" points="8.308 25.846 12.923 25.846 12.923 30.462 8.308 30.462"/><polygon id="Rectangle-path" points="25.846 32.308 30.462 32.308 30.462 36 25.846 36"/><polygon id="Rectangle-path" points="32.308 32.308 36 32.308 36 36 32.308 36"/><polygon id="Shape" points="32.123 23.262 29.17 23.262 29.17 20.308 20.308 20.308 20.308 35.077 23.262 35.077 23.262 26.215 26.215 26.215 26.215 29.17 35.077 29.17 35.077 20.308 35.077 20.308 32.123 20.308"/><path id="Shape" d="M0,15.6923077 L15.6923077,15.6923077 L15.6923077,0 L0,0 L0,15.6923077 Z M3.13822107,3.13815238 L12.5537431,3.13815238 L12.5537431,12.5534683 L3.13822107,12.5534683 L3.13822107,3.13815238 Z"/><polygon id="Rectangle-path" points="8.308 8.308 12.923 8.308 12.923 12.923 8.308 12.923"/><path id="Shape" d="M20.3076923,0 L20.3076923,15.6923077 L35.0769231,15.6923077 L35.0769231,0 L20.3076923,0 Z M32.1228991,12.5534683 L23.2617163,12.5534683 L23.2617163,3.13815238 L32.1228991,3.13815238 L32.1228991,12.5534683 Z"/><polygon id="Rectangle-path" points="25.846 8.308 30.462 8.308 30.462 12.923 25.846 12.923"/></g></g></g></g></g></svg>